<?xml version="1.0" encoding="iso-8859-1"?>
<!-- Uploaded to: SVG Repo, www.svgrepo.com, Generator: SVG Repo Mixer Tools -->
<svg height="800px" width="800px" version="1.1" id="Layer_1" xmlns="http://www.w3.org/2000/svg" xmlns:xlink="http://www.w3.org/1999/xlink" 
	 viewBox="0 0 512 512" xml:space="preserve">
<path style="fill:#FFC033;" d="M256,0C114.843,0,0,114.843,0,256s114.843,256,256,256s256-114.843,256-256S397.157,0,256,0z"/>
<path style="fill:#F9A926;" d="M512,256C512,114.843,397.157,0,256,0v512C397.157,512,512,397.157,512,256z"/>
<path style="fill:#6B7A99;" d="M256,417.391c-21.478,0-38.957-17.478-38.957-38.957s17.478-38.957,38.957-38.957
	s38.957,17.478,38.957,38.957S277.478,417.391,256,417.391z"/>
<path style="fill:#5A6680;" d="M294.957,378.435c0-21.478-17.478-38.957-38.957-38.957v77.913
	C277.478,417.391,294.957,399.913,294.957,378.435z"/>
<path style="fill:#6B7A99;" d="M256,239.304c-75.185,0-136.348,61.163-136.348,136.348c0,25.278,7.038,48.888,19.074,69.206
	C75.616,405.521,33.391,335.684,33.391,256c0-122.744,99.864-222.609,222.609-222.609c56.772,0,102.957,46.185,102.957,102.957
	S312.772,239.304,256,239.304z"/>
<path style="fill:#5A6680;" d="M358.957,136.348c0-56.772-46.185-102.957-102.957-102.957v205.913
	C312.772,239.304,358.957,193.12,358.957,136.348z"/>
<path style="fill:#FFC033;" d="M256,94.609c-21.478,0-38.957,17.478-38.957,38.957s17.478,38.957,38.957,38.957
	s38.957-17.478,38.957-38.957S277.478,94.609,256,94.609z"/>
<path style="fill:#F9A926;" d="M294.957,133.565c0-21.478-17.478-38.957-38.957-38.957v77.913
	C277.478,172.522,294.957,155.044,294.957,133.565z"/>
</svg>